<svg id="Groupe_5" data-name="Groupe 5" xmlns="http://www.w3.org/2000/svg" xmlns:xlink="http://www.w3.org/1999/xlink" width="32.43" height="36.362" viewBox="0 0 32.43 36.362">
  <defs>
    <clipPath id="clip-path">
      <rect id="Rectangle_19" data-name="Rectangle 19" width="32.43" height="36.362" fill="none"/>
    </clipPath>
  </defs>
  <g id="Groupe_4" data-name="Groupe 4" clip-path="url(#clip-path)">
    <path id="Tracé_36" data-name="Tracé 36" d="M32.43,35.87a.491.491,0,1,1-.982,0,15.233,15.233,0,1,0-30.465,0,.491.491,0,1,1-.982,0,16.215,16.215,0,1,1,32.43,0Zm-16.215-17.2a9.336,9.336,0,1,1,9.336-9.336,9.336,9.336,0,0,1-9.336,9.336m0-.983A8.353,8.353,0,1,0,7.861,9.336a8.353,8.353,0,0,0,8.354,8.353"/>
  </g>
</svg>
